<?xml version="1.0" encoding="UTF-8" standalone="no"?>
<!-- Created with Inkscape (http://www.inkscape.org/) -->

<svg
   width="100mm"
   height="100mm"
   viewBox="0 0 100 100"
   version="1.1"
   id="svg5"
   inkscape:version="1.1.2 (b8e25be833, 2022-02-05)"
   sodipodi:docname="background.svg"
   xmlns:inkscape="http://www.inkscape.org/namespaces/inkscape"
   xmlns:sodipodi="http://sodipodi.sourceforge.net/DTD/sodipodi-0.dtd"
   xmlns="http://www.w3.org/2000/svg"
   xmlns:svg="http://www.w3.org/2000/svg">
  <sodipodi:namedview
     id="namedview7"
     pagecolor="#505050"
     bordercolor="#eeeeee"
     borderopacity="1"
     inkscape:pageshadow="0"
     inkscape:pageopacity="0"
     inkscape:pagecheckerboard="0"
     inkscape:document-units="mm"
     showgrid="false"
     inkscape:snap-global="true"
     inkscape:zoom="0.65131965"
     inkscape:cx="714.70283"
     inkscape:cy="311.67492"
     inkscape:window-width="1366"
     inkscape:window-height="697"
     inkscape:window-x="-8"
     inkscape:window-y="-8"
     inkscape:window-maximized="1"
     inkscape:current-layer="g2861" />
  <defs
     id="defs2">
    <filter
       inkscape:collect="always"
       style="color-interpolation-filters:sRGB"
       id="filter3056"
       x="-0.014250494"
       y="-0.014250494"
       width="1.028501"
       height="1.028501">
      <feGaussianBlur
         inkscape:collect="always"
         stdDeviation="0.59377113"
         id="feGaussianBlur3058" />
    </filter>
  </defs>
  <g
     inkscape:label="Capa 1"
     inkscape:groupmode="layer"
     id="layer1">
    <rect
       style="opacity:0.07051282;fill:#000000;stroke:none;stroke-width:1.91238;stroke-linecap:round;stroke-linejoin:round;paint-order:markers stroke fill"
       id="rect2370"
       width="100"
       height="100"
       x="-3.5527137e-15"
       y="0"
       inkscape:export-filename="C:\Users\Lautaro\Desktop\Proyectos\ping-pong\assets\image\background.png"
       inkscape:export-xdpi="200"
       inkscape:export-ydpi="200" />
    <g
       id="g2861"
       style="fill:#ffffff"
       inkscape:export-filename="C:\Users\Lautaro\Desktop\Proyectos\ping-pong\assets\image\background.png"
       inkscape:export-xdpi="200"
       inkscape:export-ydpi="200">
      <path
         id="rect2825"
         style="opacity:0.07051282;fill:#00ffff;stroke:none;stroke-width:0.270452;stroke-linecap:round;stroke-linejoin:round;paint-order:markers stroke fill;filter:url(#filter3056)"
         d="m -9.609e-5,0 v 1.0004557 22.9996303 1.999877 23.000147 1.999877 23.000146 1.99988 24.000087 H 0.9998429 100 V 99.000157 25.999963 24.000086 0 H 0.9998429 Z M 0.9998429,1.0004557 H 23.999989 V 24.000086 H 0.9998429 Z m 25.0000251,0 H 49.000012 V 24.000086 H 25.999868 Z m 25.000024,0 H 74.000036 V 24.000086 H 50.999892 Z m 25.000024,0 H 99.00006 V 24.000086 H 75.999916 Z M 0.9998429,25.999963 H 23.999989 V 49.00011 H 0.9998429 Z m 25.0000251,0 H 49.000012 V 49.00011 H 25.999868 Z m 25.000024,0 H 74.000036 V 49.00011 H 50.999892 Z m 25.000024,0 H 99.00006 V 49.00011 H 75.999916 Z M 0.9998429,50.999987 H 23.999989 V 74.000133 H 0.9998429 Z m 25.0000251,0 H 49.000012 V 74.000133 H 25.999868 Z m 25.000024,0 H 74.000036 V 74.000133 H 50.999892 Z m 25.000024,0 H 99.00006 V 74.000133 H 75.999916 Z M 0.9998429,76.000013 H 23.999989 V 99.000157 H 0.9998429 Z m 25.0000251,0 H 49.000012 V 99.000157 H 25.999868 Z m 25.000024,0 H 74.000036 V 99.000157 H 50.999892 Z m 25.000024,0 H 99.00006 V 99.000157 H 75.999916 Z" />
    </g>
  </g>
</svg>
